<svg width="42" height="42" viewBox="0 0 42 42" fill="none" xmlns="http://www.w3.org/2000/svg">
<path d="M39.4418 21.9711C38.3318 21.1343 36.9351 20.6906 35.5116 20.7223C34.0881 20.754 32.7345 21.259 31.7026 22.1435L27.5664 25.6842C27.3204 24.8282 26.7957 24.0573 26.0628 23.4752C25.33 22.8932 24.4242 22.5281 23.4674 22.4289L22.3784 22.3206C21.7904 22.2613 21.2318 22.0437 20.7731 21.6954C18.7902 20.2 16.3162 19.3709 13.7707 19.3487C11.2253 19.3264 8.76512 20.1124 6.80752 21.5734L2.27207 24.9662C2.0315 25.1461 1.88039 25.4076 1.852 25.6931C1.8236 25.9786 1.92025 26.2648 2.12067 26.4886C2.32109 26.7124 2.60887 26.8556 2.9207 26.8866C3.23253 26.9176 3.54287 26.8339 3.78345 26.654L8.3189 23.2612C9.85526 22.1086 11.7896 21.488 13.7916 21.5054C15.7935 21.5228 17.7388 22.1771 19.2953 23.3566C20.1158 23.9771 21.1148 24.3629 22.1651 24.4649L23.2541 24.5732C23.8752 24.635 24.4485 24.9202 24.8477 25.366C25.2469 25.8118 25.4394 26.3817 25.3828 26.9504L17.186 26.1353C16.8755 26.1044 16.5664 26.1877 16.3268 26.367C16.0872 26.5462 15.9367 26.8066 15.9084 27.091C15.8802 27.3753 15.9764 27.6603 16.176 27.8832C16.3756 28.1061 16.6622 28.2487 16.9728 28.2796L26.3405 29.2112C26.506 29.2246 26.6721 29.2057 26.8279 29.1559C26.9836 29.1061 27.1256 29.0264 27.2444 28.9221L33.3077 23.7215C33.781 23.3189 34.3689 23.0462 35.0063 22.9338C35.6436 22.8214 36.3056 22.8735 36.9187 23.0845L27.6814 32.3762C27.3144 32.7432 26.8579 33.0252 26.3479 33.2C25.8379 33.3748 25.2884 33.4376 24.7431 33.3833L14.6844 32.3831C14.0061 32.3145 13.3221 32.3693 12.6715 32.5443C12.0209 32.7193 11.4167 33.0111 10.8935 33.4028C10.7738 33.4916 10.6749 33.6015 10.6025 33.7262C10.53 33.851 10.4855 33.9881 10.4714 34.1296C10.4573 34.2711 10.474 34.4143 10.5205 34.5509C10.5669 34.6874 10.6422 34.8147 10.7421 34.9253C10.8409 35.0366 10.9625 35.1292 11.0998 35.1978C11.2371 35.2665 11.3873 35.3097 11.5419 35.3251C11.6965 35.3405 11.8523 35.3277 12.0005 35.2874C12.1486 35.2472 12.286 35.1803 12.4049 35.0906C12.6884 34.8743 13.0174 34.713 13.3723 34.6163C13.7272 34.5195 14.1008 34.4893 14.4712 34.5274L24.5298 35.5276C25.4388 35.618 26.3545 35.5134 27.2045 35.2221C28.0545 34.9307 28.8154 34.4607 29.427 33.8491L39.6694 23.6071C39.8709 23.3697 39.9643 23.0691 39.9303 22.7668C39.8806 22.4566 39.7064 22.1727 39.4418 21.9711Z" fill="#008dd9"/>
<path d="M5.65719 15.5937L7.25213 11.4076C7.35373 11.1404 7.55598 10.9324 7.80998 10.8324C8.7311 10.4714 11.0526 9.68722 12.8373 10.1339C13.3798 10.2695 13.7057 10.8589 13.5447 11.4269C12.9715 13.4512 12.4022 15.3062 12.1021 16.2709C11.9727 16.6869 11.6085 16.9684 11.1964 16.9704L6.55339 17C5.86998 17.0031 5.40031 16.2678 5.65719 15.5937Z" stroke="#008dd9" stroke-width="1.8" stroke-miterlimit="10" stroke-linecap="round" stroke-linejoin="round"/>
<path d="M9.49027 4.4978L8.65165 6.72794C8.41102 7.36819 8.8677 8.06754 9.42986 7.92415C10.6136 7.62227 12.4014 7.38831 14.2302 7.97321C14.5906 8.08767 14.9593 7.82478 15.0657 7.38705L15.5562 5.37703C15.6863 4.84244 15.374 4.30031 14.9203 4.2739L10.1569 4.00095C9.87324 3.9846 9.60905 4.18082 9.49027 4.4978Z" stroke="#008dd9" stroke-width="1.8" stroke-miterlimit="10" stroke-linecap="round" stroke-linejoin="round"/>
<path d="M17.6723 6.31559L18.4939 4.55293C18.6847 4.1439 19.2482 3.91341 19.841 4.00124L23.1876 4.49512C23.7321 4.57593 24.1698 4.90428 24.2721 5.30893L25.277 9.28864C25.4762 10.0777 24.359 10.6103 23.4258 10.1711C22.0833 9.53896 20.2465 8.61541 18.144 7.40356C17.6875 7.14028 17.4942 6.69786 17.6723 6.31559Z" stroke="#008dd9" stroke-width="1.8" stroke-miterlimit="10" stroke-linecap="round" stroke-linejoin="round"/>
<path d="M28.3275 4.77283L31.8117 5.11207C32.3439 5.16397 32.8053 5.4538 33.0053 5.86354L35.2979 10.5478C35.6553 11.277 35.0612 12.0609 34.113 12.1047C32.8546 12.1625 31.0598 12.1115 29.0579 11.6461C28.5519 11.5286 28.1573 11.1935 28.0312 10.7764C27.5624 9.22102 27.1066 7.37364 26.8076 6.10539C26.6302 5.34581 27.3875 4.68084 28.3275 4.77283Z" stroke="#008dd9" stroke-width="1.8" stroke-miterlimit="10" stroke-linecap="round" stroke-linejoin="round"/>
<path d="M16.1294 10.75L14.6314 15.6522C14.4244 16.3302 14.9511 17.0083 15.6774 16.9999L25.5192 16.8879C26.2553 16.8796 26.7661 16.173 26.526 15.4961L26.0226 14.0758C25.8928 13.7111 25.5694 13.4466 25.1774 13.3834C24.1914 13.2238 21.9291 12.5898 17.718 10.1483C17.1129 9.79913 16.3303 10.0934 16.1294 10.75Z" stroke="#008dd9" stroke-width="1.8" stroke-miterlimit="10" stroke-linecap="round" stroke-linejoin="round"/>
<path d="M28.7882 15.5223L28.9039 16.7524C28.9446 17.1833 29.189 17.5042 29.5106 17.5508L34.4722 18.2718C35.0108 18.3494 35.4826 17.6517 35.3668 16.9478L35.056 15.0595C34.9744 14.5611 34.62 14.2612 34.2334 14.3611C33.2847 14.6071 31.4843 14.9157 29.8096 14.3148C29.2713 14.1237 28.7177 14.7718 28.7882 15.5223Z" stroke="#008dd9" stroke-width="1.8" stroke-miterlimit="10" stroke-linecap="round" stroke-linejoin="round"/>
</svg>
