<svg width="42" height="42" viewBox="0 0 42 42" fill="none" xmlns="http://www.w3.org/2000/svg">
<path d="M36.2668 7H6.02052C5.35204 7 4.71093 7.26555 4.23824 7.73824C3.76555 8.21093 3.5 8.85204 3.5 9.52052V30.9449C3.5 31.6134 3.76555 32.2545 4.23824 32.7272C4.71093 33.1999 5.35204 33.4655 6.02052 33.4655H23.6642V37.2462C23.6648 37.4742 23.7272 37.6978 23.8448 37.8931C23.9625 38.0884 24.1309 38.2481 24.3321 38.3553C24.5292 38.4565 24.7494 38.5039 24.9707 38.4928C25.1919 38.4818 25.4064 38.4126 25.5924 38.2923L28.7052 36.238L31.7928 38.2923C31.9824 38.4171 32.2021 38.4884 32.4288 38.4987C32.6556 38.509 32.8808 38.4579 33.0809 38.3507C33.281 38.2436 33.4484 38.0844 33.5655 37.89C33.6826 37.6956 33.7451 37.4732 33.7462 37.2462V33.4655H36.2668C36.9352 33.4655 37.5763 33.1999 38.049 32.7272C38.5217 32.2545 38.7873 31.6134 38.7873 30.9449V9.52052C38.7873 8.85204 38.5217 8.21093 38.049 7.73824C37.5763 7.26555 36.9352 7 36.2668 7ZM29.4488 28.3488C28.6529 28.5088 27.8267 28.4083 27.0924 28.0624C26.358 27.7164 25.7545 27.1433 25.3712 26.4277C24.9878 25.7122 24.8449 24.8923 24.9636 24.0893C25.0823 23.2862 25.4563 22.5427 26.0303 21.9687C26.6043 21.3947 27.3478 21.0207 28.1508 20.902C28.9539 20.7833 29.7738 20.9262 30.4893 21.3096C31.2048 21.693 31.778 22.2965 32.1239 23.0308C32.4699 23.7652 32.5703 24.5913 32.4104 25.3872C32.2635 26.1178 31.9041 26.7886 31.3771 27.3156C30.8502 27.8425 30.1793 28.202 29.4488 28.3488ZM31.2257 34.8895L29.3983 33.6293C29.1926 33.4938 28.9516 33.4216 28.7052 33.4216C28.4588 33.4216 28.2178 33.4938 28.0121 33.6293L26.1847 34.8895V30.4156C26.9797 30.7626 27.8378 30.9417 28.7052 30.9417C29.5726 30.9417 30.4307 30.7626 31.2257 30.4156V34.8895ZM36.2668 30.9449H33.7462V28.4244C34.2996 27.6976 34.6858 26.8578 34.8775 25.9647C35.0692 25.0716 35.0616 24.1472 34.8553 23.2574C34.5171 21.7417 33.6312 20.4043 32.3675 19.5018C31.1038 18.5992 29.5513 18.1951 28.0079 18.3669C26.4646 18.5387 25.039 19.2744 24.0047 20.4328C22.9705 21.5912 22.4004 23.0907 22.4039 24.6436C22.3974 26.0081 22.8403 27.3367 23.6642 28.4244V30.9449H6.02052V9.52052H36.2668V30.9449Z" fill="#008DD9"/>
<path d="M9.79932 15.8218H32.484C32.8182 15.8218 33.1388 15.689 33.3751 15.4527C33.6115 15.2163 33.7443 14.8958 33.7443 14.5615C33.7443 14.2273 33.6115 13.9067 33.3751 13.6704C33.1388 13.434 32.8182 13.3013 32.484 13.3013H9.79932C9.46508 13.3013 9.14453 13.434 8.90818 13.6704C8.67184 13.9067 8.53906 14.2273 8.53906 14.5615C8.53906 14.8958 8.67184 15.2163 8.90818 15.4527C9.14453 15.689 9.46508 15.8218 9.79932 15.8218Z" fill="#008DD9"/>
<path d="M9.79932 20.8628H19.8814C20.2156 20.8628 20.5362 20.73 20.7725 20.4937C21.0089 20.2573 21.1417 19.9368 21.1417 19.6025C21.1417 19.2683 21.0089 18.9478 20.7725 18.7114C20.5362 18.4751 20.2156 18.3423 19.8814 18.3423H9.79932C9.46508 18.3423 9.14453 18.4751 8.90818 18.7114C8.67184 18.9478 8.53906 19.2683 8.53906 19.6025C8.53906 19.9368 8.67184 20.2573 8.90818 20.4937C9.14453 20.73 9.46508 20.8628 9.79932 20.8628Z" fill="#008DD9"/>
<path d="M9.79932 25.9038H19.8814C20.2156 25.9038 20.5362 25.771 20.7725 25.5347C21.0089 25.2984 21.1417 24.9778 21.1417 24.6436C21.1417 24.3093 21.0089 23.9888 20.7725 23.7524C20.5362 23.5161 20.2156 23.3833 19.8814 23.3833H9.79932C9.46508 23.3833 9.14453 23.5161 8.90818 23.7524C8.67184 23.9888 8.53906 24.3093 8.53906 24.6436C8.53906 24.9778 8.67184 25.2984 8.90818 25.5347C9.14453 25.771 9.46508 25.9038 9.79932 25.9038Z" fill="#008DD9"/>
</svg>
