<svg width="42" height="42" viewBox="0 0 42 42" fill="none" xmlns="http://www.w3.org/2000/svg">
<path d="M18.6375 35.3774H4.9375C4.38522 35.3774 3.9375 34.9297 3.9375 34.3774V7.68213C3.9375 7.12984 4.38522 6.68213 4.9375 6.68213H21.3125C21.8648 6.68213 22.3125 7.12984 22.3125 7.68213V12.4212" stroke="#008dd9" stroke-width="2.5" stroke-linecap="round"/>
<path d="M34.65 10.9863L23.275 35.3773M38.0625 28.602H21M38.0625 17.7616H21" stroke="#008dd9" stroke-width="2.5" stroke-linecap="round"/>
<path d="M4.59375 29.6382H16.4062" stroke="#008dd9" stroke-width="2.5" stroke-linecap="round"/>
<path fill-rule="evenodd" clip-rule="evenodd" d="M12.4693 11.9326C12.7454 11.9326 12.9693 12.1565 12.9693 12.4326V13.704C12.9852 13.7075 13.0011 13.7112 13.0169 13.7149C14.0079 13.9511 14.9976 14.6528 15.5025 15.6153C15.6307 15.8599 15.5365 16.1621 15.2919 16.2903C15.0474 16.4186 14.7452 16.3243 14.6169 16.0798C14.2583 15.3961 13.5211 14.8631 12.7851 14.6877C12.058 14.5144 11.4745 14.7051 11.1852 15.2567C10.938 15.728 10.9237 16.1077 11.0656 16.4621C11.2194 16.8461 11.5844 17.2696 12.2428 17.7422C12.4095 17.8618 12.5826 17.9798 12.7605 18.1006L12.8039 18.13L12.804 18.13C12.9666 18.2403 13.1332 18.3534 13.295 18.4678C13.6446 18.715 13.9976 18.9865 14.2823 19.2935C14.5686 19.6023 14.8094 19.9723 14.8951 20.4195C14.9823 20.8753 14.8968 21.3501 14.639 21.8416C14.3575 22.3784 13.9485 22.7305 13.4694 22.9217C13.3063 22.9869 13.1386 23.032 12.9693 23.0605V24.2937C12.9693 24.5699 12.7454 24.7937 12.4693 24.7937C12.1932 24.7937 11.9693 24.5699 11.9693 24.2937V23.06C11.0447 22.9237 10.132 22.4544 9.56562 21.9991C9.35041 21.826 9.31622 21.5113 9.48925 21.2961C9.66228 21.0809 9.97702 21.0467 10.1922 21.2197C10.6519 21.5893 11.421 21.9776 12.152 22.0759C12.2604 22.0905 12.3653 22.0983 12.4662 22.0993C12.4672 22.0993 12.4683 22.0993 12.4693 22.0993C12.4727 22.0993 12.476 22.0993 12.4793 22.0994C12.7089 22.1003 12.9174 22.0654 13.0986 21.993C13.3523 21.8917 13.5807 21.7065 13.7534 21.3771C13.9274 21.0455 13.9498 20.8001 13.9129 20.6076C13.8744 20.4065 13.7591 20.2 13.5489 19.9733C13.3371 19.7448 13.0533 19.5216 12.7176 19.2842C12.5642 19.1758 12.4054 19.068 12.2412 18.9566L12.2411 18.9566L12.199 18.928C12.0215 18.8075 11.8384 18.6828 11.6597 18.5546C10.9365 18.0355 10.3941 17.475 10.1373 16.8339C9.86863 16.1631 9.94064 15.4766 10.2996 14.7922C10.6774 14.0719 11.3017 13.73 11.9693 13.6482V12.4326C11.9693 12.1565 12.1932 11.9326 12.4693 11.9326Z" fill="#008dd9"/>
<path d="M12.9693 13.704H12.4693V14.1049L12.8606 14.192L12.9693 13.704ZM13.0169 13.7149L13.1329 13.2286L13.1329 13.2286L13.0169 13.7149ZM15.5025 15.6153L15.0597 15.8476L15.0597 15.8476L15.5025 15.6153ZM15.2919 16.2903L15.5242 16.7331L15.5242 16.7331L15.2919 16.2903ZM14.6169 16.0798L14.1741 16.312L14.1741 16.312L14.6169 16.0798ZM12.7851 14.6877L12.6692 15.1741L12.6692 15.1741L12.7851 14.6877ZM11.1852 15.2567L10.7424 15.0245L10.7424 15.0245L11.1852 15.2567ZM11.0656 16.4621L10.6014 16.648L10.6014 16.648L11.0656 16.4621ZM12.2428 17.7422L11.9512 18.1484L11.9512 18.1484L12.2428 17.7422ZM12.7605 18.1006L12.4798 18.5143L12.4798 18.5143L12.7605 18.1006ZM12.8039 18.13L12.5232 18.5437L12.5245 18.5446L12.8039 18.13ZM12.804 18.13L13.0847 17.7162L13.0834 17.7154L12.804 18.13ZM13.295 18.4678L13.5837 18.0595L13.5837 18.0595L13.295 18.4678ZM14.2823 19.2935L13.9156 19.6334L13.9156 19.6334L14.2823 19.2935ZM14.8951 20.4195L15.3862 20.3255L15.3862 20.3255L14.8951 20.4195ZM14.639 21.8416L14.1962 21.6094L14.1962 21.6094L14.639 21.8416ZM13.4694 22.9217L13.284 22.4574L13.284 22.4574L13.4694 22.9217ZM12.9693 23.0605L12.8864 22.5674L12.4693 22.6375V23.0605H12.9693ZM11.9693 23.06H12.4693V22.6283L12.0422 22.5653L11.9693 23.06ZM9.56562 21.9991L9.87892 21.6094L9.87892 21.6094L9.56562 21.9991ZM9.48925 21.2961L9.09958 20.9828L9.09958 20.9828L9.48925 21.2961ZM10.1922 21.2197L10.5055 20.83L10.5055 20.83L10.1922 21.2197ZM12.152 22.0759L12.0854 22.5714L12.0854 22.5714L12.152 22.0759ZM12.4662 22.0993L12.4613 22.5993L12.469 22.5993L12.4662 22.0993ZM12.4793 22.0994L12.4695 22.5993L12.4774 22.5994L12.4793 22.0994ZM13.0986 21.993L12.9132 21.5287L12.9132 21.5287L13.0986 21.993ZM13.7534 21.3771L13.3106 21.1449L13.3106 21.1449L13.7534 21.3771ZM13.9129 20.6076L13.4218 20.7016L13.4218 20.7016L13.9129 20.6076ZM13.5489 19.9733L13.1823 20.3133L13.1823 20.3133L13.5489 19.9733ZM12.7176 19.2842L12.4289 19.6925L12.4289 19.6925L12.7176 19.2842ZM12.2412 18.9566L11.9556 19.3671L11.9605 19.3704L12.2412 18.9566ZM12.2411 18.9566L12.5267 18.5461L12.5219 18.5429L12.2411 18.9566ZM12.199 18.928L11.9182 19.3417L11.9183 19.3418L12.199 18.928ZM11.6597 18.5546L11.3681 18.9608L11.3681 18.9608L11.6597 18.5546ZM10.1373 16.8339L9.67312 17.0198L9.67312 17.0198L10.1373 16.8339ZM10.2996 14.7922L10.7424 15.0245L10.7424 15.0245L10.2996 14.7922ZM11.9693 13.6482L12.0301 14.1445L12.4693 14.0907V13.6482H11.9693ZM13.4693 12.4326C13.4693 11.8803 13.0216 11.4326 12.4693 11.4326V12.4326H13.4693ZM13.4693 13.704V12.4326H12.4693V13.704H13.4693ZM12.8606 14.192C12.8741 14.195 12.8876 14.1981 12.901 14.2013L13.1329 13.2286C13.1146 13.2242 13.0963 13.22 13.078 13.2159L12.8606 14.192ZM12.901 14.2013C13.7646 14.4071 14.628 15.0245 15.0597 15.8476L15.9453 15.3831C15.3672 14.2811 14.2512 13.4951 13.1329 13.2286L12.901 14.2013ZM15.0597 15.8476L15.0597 15.8476L15.5242 16.7331C16.0133 16.4766 16.2018 15.8722 15.9453 15.3831L15.0597 15.8476ZM15.0597 15.8476L15.0597 15.8476L14.1741 16.312C14.4306 16.8011 15.0351 16.9897 15.5242 16.7331L15.0597 15.8476ZM15.0597 15.8476C14.628 15.0246 13.7647 14.4071 12.901 14.2013L12.6692 15.1741C13.2775 15.319 13.8885 15.7676 14.1741 16.312L15.0597 15.8476ZM12.901 14.2013C12.4714 14.0989 12.0426 14.0939 11.6567 14.2281C11.2611 14.3658 10.9447 14.6388 10.7424 15.0245L11.628 15.489C11.715 15.3231 11.835 15.2249 11.9853 15.1726C12.1452 15.117 12.3717 15.1032 12.6692 15.1741L12.901 14.2013ZM10.7424 15.0245C10.439 15.6029 10.3964 16.136 10.6014 16.648L11.5297 16.2762C11.4509 16.0794 11.437 15.8531 11.628 15.4889L10.7424 15.0245ZM10.6014 16.648C10.8067 17.1605 11.2605 17.6526 11.9512 18.1484L12.5344 17.336C11.9083 16.8866 11.632 16.5316 11.5297 16.2762L10.6014 16.648ZM11.9512 18.1484C12.1239 18.2723 12.302 18.3937 12.4798 18.5143L13.0413 17.6868C12.8631 17.5659 12.695 17.4513 12.5344 17.336L11.9512 18.1484ZM12.4798 18.5143L12.5232 18.5437L13.0846 17.7162L13.0412 17.6868L12.4798 18.5143ZM12.5245 18.5446L12.5245 18.5447L13.0834 17.7154L13.0833 17.7153L12.5245 18.5446ZM12.5233 18.5438C12.6866 18.6546 12.8492 18.7649 13.0063 18.876L13.5837 18.0595C13.4173 17.9419 13.2466 17.8261 13.0847 17.7162L12.5233 18.5438ZM13.0063 18.876C13.3489 19.1183 13.6673 19.3656 13.9156 19.6334L14.6489 18.9535C14.328 18.6073 13.9404 18.3118 13.5837 18.0595L13.0063 18.876ZM13.9156 19.6334C14.1639 19.9012 14.3419 20.1895 14.404 20.5135L15.3862 20.3255C15.2769 19.7551 14.9732 19.3033 14.6489 18.9535L13.9156 19.6334ZM14.404 20.5135C14.466 20.8375 14.4122 21.1976 14.1962 21.6094L15.0818 22.0739C15.3815 21.5026 15.4986 20.913 15.3862 20.3255L14.404 20.5135ZM14.1962 21.6094C13.9691 22.0425 13.6504 22.3111 13.284 22.4574L13.6548 23.3861C14.2466 23.1498 14.7459 22.7144 15.0818 22.0739L14.1962 21.6094ZM13.284 22.4574C13.1567 22.5082 13.0237 22.5443 12.8864 22.5674L13.0522 23.5536C13.2536 23.5197 13.4559 23.4655 13.6548 23.3861L13.284 22.4574ZM13.4693 24.2937V23.0605H12.4693V24.2937H13.4693ZM12.4693 25.2937C13.0216 25.2937 13.4693 24.846 13.4693 24.2937H12.4693V25.2937ZM11.4693 24.2937C11.4693 24.846 11.917 25.2937 12.4693 25.2937V24.2937H11.4693ZM11.4693 23.06V24.2937H12.4693V23.06H11.4693ZM12.0422 22.5653C11.2192 22.444 10.3874 22.0182 9.87892 21.6094L9.25232 22.3887C9.87658 22.8906 10.8702 23.4034 11.8964 23.5547L12.0422 22.5653ZM9.87892 21.6094L9.87892 21.6094L9.09958 20.9828C8.75352 21.4132 8.8219 22.0427 9.25232 22.3887L9.87892 21.6094ZM9.87892 21.6094L9.87892 21.6094L10.5055 20.83C10.0751 20.484 9.44565 20.5524 9.09958 20.9828L9.87892 21.6094ZM9.87892 21.6094C10.397 22.026 11.2492 22.459 12.0854 22.5714L12.2186 21.5803C11.5927 21.4962 10.9068 21.1527 10.5055 20.83L9.87892 21.6094ZM12.0854 22.5714C12.2124 22.5885 12.338 22.5981 12.4613 22.5993L12.4711 21.5993C12.3926 21.5986 12.3084 21.5924 12.2186 21.5803L12.0854 22.5714ZM12.4693 21.5993C12.4671 21.5993 12.465 21.5993 12.4634 21.5993L12.469 22.5993L12.4693 22.5993V21.5993ZM12.4892 21.5995C12.4826 21.5994 12.476 21.5993 12.4693 21.5993V22.5993L12.4695 22.5993L12.4892 21.5995ZM12.4774 22.5994C12.7575 22.6005 13.0318 22.5581 13.284 22.4574L12.9132 21.5287C12.803 21.5727 12.6602 21.6001 12.4813 21.5994L12.4774 22.5994ZM13.284 22.4574C13.6504 22.3111 13.969 22.0425 14.1962 21.6094L13.3106 21.1449C13.1923 21.3705 13.0543 21.4723 12.9132 21.5287L13.284 22.4574ZM14.1962 21.6094C14.4123 21.1975 14.466 20.8374 14.404 20.5135L13.4218 20.7016C13.4336 20.7629 13.4424 20.8936 13.3106 21.1449L14.1962 21.6094ZM14.404 20.5135C14.342 20.1895 14.164 19.9013 13.9156 19.6334L13.1823 20.3133C13.3543 20.4988 13.4069 20.6235 13.4218 20.7016L14.404 20.5135ZM13.9156 19.6334C13.6673 19.3656 13.3488 19.1183 13.0063 18.876L12.4289 19.6925C12.7577 19.925 13.0068 20.124 13.1823 20.3133L13.9156 19.6334ZM13.0063 18.876C12.8482 18.7642 12.6853 18.6538 12.5219 18.5429L11.9605 19.3704C12.1255 19.4823 12.2801 19.5873 12.4289 19.6925L13.0063 18.876ZM12.5267 18.5462L12.5267 18.5462L11.9556 19.3671L11.9556 19.3671L12.5267 18.5462ZM12.5219 18.5429L12.4797 18.5143L11.9183 19.3418L11.9604 19.3704L12.5219 18.5429ZM12.4798 18.5143C12.302 18.3937 12.1239 18.2723 11.9512 18.1484L11.3681 18.9608C11.5528 19.0933 11.7409 19.2214 11.9182 19.3417L12.4798 18.5143ZM11.9512 18.1484C11.2605 17.6526 10.8067 17.1605 10.6014 16.648L9.67312 17.0198C9.98139 17.7894 10.6126 18.4185 11.3681 18.9608L11.9512 18.1484ZM10.6014 16.648C10.3963 16.1357 10.4391 15.6027 10.7424 15.0245L9.85681 14.56C9.44216 15.3506 9.34099 16.1905 9.67312 17.0198L10.6014 16.648ZM10.7424 15.0245C11.0337 14.469 11.5024 14.2091 12.0301 14.1445L11.9085 13.1519C11.101 13.2508 10.321 13.6749 9.85681 14.56L10.7424 15.0245ZM11.4693 12.4326V13.6482H12.4693V12.4326H11.4693ZM12.4693 11.4326C11.917 11.4326 11.4693 11.8803 11.4693 12.4326H12.4693V11.4326Z" fill="#008dd9"/>
</svg>
