<svg width="42" height="42" viewBox="0 0 42 42" fill="none" xmlns="http://www.w3.org/2000/svg">
<path d="M21.0107 38.8444C15.848 38.8444 10.6853 38.8406 5.5226 38.8513C5.11133 38.8524 4.79567 38.5291 4.80529 38.1447C4.83146 37.0553 4.81704 35.9648 4.83253 34.8748C4.83573 34.6368 4.75027 34.5526 4.52328 34.5601C4.23005 34.5692 3.93576 34.5639 3.642 34.5617C3.22539 34.5585 3 34.3365 3 33.9296C3 26.6923 3 19.4551 3 12.2172C3 11.8773 3.28148 11.5878 3.63345 11.5809C4.03403 11.5733 4.43462 11.5792 4.8352 11.5792C7.2921 11.5792 9.749 11.5792 12.2054 11.5792C12.6006 11.5792 12.6086 11.5707 12.6086 11.175C12.6086 8.53025 12.6092 5.8855 12.6075 3.24075C12.6075 3.09599 12.6166 2.95982 12.6957 2.82954C12.8239 2.61991 12.9702 2.50464 13.2463 2.50464C18.3914 2.51429 23.5365 2.51161 28.681 2.51161C29.1617 2.51161 29.4021 2.7518 29.4021 3.2429C29.4026 5.35151 29.4015 7.46013 29.401 9.56874C29.401 10.1226 29.4015 10.6764 29.4005 11.2308C29.3999 11.5685 29.4079 11.5787 29.7402 11.5787C32.5618 11.5787 35.3835 11.59 38.2052 11.568C38.6699 11.5642 39.0011 11.8966 39 12.3749C38.985 19.5231 38.9872 26.6709 38.9952 33.8192C38.9957 34.2609 38.7922 34.6089 38.2619 34.5655C37.9879 34.543 37.7101 34.5682 37.4345 34.5601C37.2225 34.5542 37.1429 34.6604 37.1546 34.8555C37.2177 35.9171 37.1547 36.9797 37.1894 38.0412C37.1995 38.349 37.1354 38.6186 36.8294 38.7875C36.7226 38.8465 36.628 38.8422 36.526 38.8422C31.3542 38.8444 26.1825 38.8444 21.0107 38.8444ZM13.7639 14.922C13.765 14.922 13.766 14.922 13.7671 14.922C13.7671 15.4046 13.7671 15.8871 13.7671 16.3696C13.766 19.5414 13.7644 22.7131 13.7639 25.8849C13.7639 26.1734 13.821 26.2227 14.0918 26.1771C15.3913 25.9594 16.6337 27.0049 16.7597 28.3104C16.819 28.921 16.6582 29.4781 16.2966 29.9724C16.1861 30.1236 16.1407 30.2608 16.3298 30.3777C16.6443 30.5718 16.9066 30.8233 17.1421 31.1047C17.2628 31.2495 17.3686 31.2999 17.4904 31.0999C17.8221 30.5568 18.2686 30.1274 18.8118 29.8019C19.0035 29.6872 19.0056 29.581 18.8582 29.4255C17.8893 28.4021 17.6682 26.8805 18.5356 25.6211C19.2225 24.6234 20.2026 24.1688 21.3936 24.3301C22.5954 24.4931 23.4318 25.204 23.8324 26.3519C24.2335 27.5019 23.9349 28.534 23.1396 29.4282C22.9954 29.5907 22.989 29.6883 23.1765 29.8046C23.7122 30.1375 24.1699 30.552 24.5021 31.0978C24.6175 31.2875 24.7366 31.2736 24.8712 31.0951C25.0817 30.8163 25.3364 30.5766 25.6361 30.396C25.8129 30.2898 25.8492 30.1794 25.7269 30.0062C25.5827 29.8025 25.4545 29.5875 25.3701 29.35C24.7526 27.6054 26.3 25.8458 27.9813 26.1857C28.1346 26.2168 28.2014 26.1562 28.2126 26.0136C28.219 25.9337 28.2169 25.8528 28.2169 25.7723C28.2169 22.1368 28.2163 18.5013 28.2169 14.8658C28.2174 11.2393 28.219 7.61239 28.219 3.98598C28.219 3.66054 28.195 3.63963 27.8686 3.63963C23.3025 3.63963 18.7364 3.63963 14.1703 3.63963C13.7708 3.63963 13.7639 3.6466 13.7639 4.03906C13.7639 7.66708 13.7639 11.2946 13.7639 14.922ZM37.8773 23.1008C37.8736 23.1008 37.8704 23.1008 37.8666 23.1008C37.8666 22.5293 37.8666 21.9577 37.8666 21.3862C37.8666 18.7613 37.8672 16.1364 37.8666 13.5115C37.8666 12.7668 37.8661 12.7566 37.1295 12.7545C34.6572 12.7475 32.1842 12.7507 29.7118 12.7437C29.4859 12.7432 29.3967 12.8081 29.4015 13.0499C29.4154 13.7822 29.4069 14.5146 29.4069 15.2475C29.4069 19.0615 29.4063 22.8761 29.4074 26.6902C29.4074 26.8301 29.3941 26.9658 29.4939 27.0966C30.1317 27.9324 30.1813 29.1291 29.4934 30.0019C29.3775 30.1493 29.3871 30.2775 29.5527 30.3825C30.3063 30.8597 30.7956 31.5385 31.0599 32.3855C31.1053 32.5314 31.1903 32.5496 31.2997 32.4778C31.4258 32.3952 31.5353 32.2874 31.6613 32.2049C31.8323 32.0928 31.851 31.9877 31.726 31.813C31.4568 31.4382 31.2784 31.0168 31.249 30.5514C31.155 29.0722 32.3423 27.8922 33.8159 27.9887C35.0273 28.0681 35.9844 29.0792 36.0127 30.2941C36.0261 30.8613 35.8648 31.3685 35.5299 31.8172C35.3921 32.0017 35.422 32.1228 35.6068 32.2295C35.8493 32.3695 36.0688 32.5459 36.2264 32.7721C36.5554 33.2444 36.9362 33.5784 37.5616 33.4305C37.5702 33.4283 37.5793 33.4305 37.5883 33.4305C37.7897 33.4417 37.8768 33.3522 37.8757 33.1436C37.8704 32.4386 37.8773 31.7331 37.8778 31.0275C37.8778 28.3854 37.8773 25.7428 37.8773 23.1008ZM4.13658 23.1002C4.13712 23.1002 4.13765 23.1002 4.13819 23.1002C4.13819 26.272 4.13445 29.4438 4.14032 32.6155C4.14246 33.5758 3.96407 33.4005 5.0216 33.4208C5.16474 33.4235 5.27156 33.3635 5.35489 33.2375C5.63316 32.8171 5.97766 32.4585 6.40281 32.1856C6.54969 32.0912 6.56678 32.0006 6.46102 31.8596C6.27302 31.6082 6.1475 31.3272 6.04923 31.0254C5.5947 29.6293 6.67841 27.9544 8.33361 27.9415C10.2099 27.9271 11.3604 29.9574 10.43 31.6044C10.1693 32.066 10.1731 32.0607 10.6046 32.4086C10.7836 32.5528 10.8551 32.5351 10.9353 32.3083C11.2151 31.5138 11.6766 30.849 12.3982 30.3906C12.6038 30.2598 12.5467 30.1215 12.4377 29.9644C11.8267 29.0872 11.8026 28.0911 12.3928 27.2113C12.5151 27.0285 12.5654 26.8542 12.5654 26.6414C12.5621 24.5869 12.5654 22.5325 12.5664 20.478C12.5675 18.0037 12.5659 15.5289 12.5707 13.0547C12.5712 12.8306 12.4815 12.762 12.2668 12.7625C9.66781 12.7673 7.06884 12.7679 4.4704 12.7614C4.21617 12.7609 4.13231 12.8451 4.13284 13.104C4.13872 16.435 4.13658 19.7676 4.13658 23.1002ZM20.9877 37.6702C21.8861 37.6702 22.7845 37.6643 23.6828 37.674C23.9323 37.6767 24.0273 37.6 24.0252 37.3362C24.014 36.0238 24.022 34.7113 24.0182 33.3988C24.0177 33.2214 24.0086 33.0402 23.9734 32.8665C23.6139 31.0795 21.862 29.9874 20.1225 30.5037C18.9843 30.8415 18.0122 32.0161 17.9994 33.2074C17.9844 34.5907 17.9983 35.9744 17.9876 37.3582C17.9855 37.6139 18.0838 37.6767 18.3193 37.674C19.2086 37.6638 20.0984 37.6697 20.9877 37.6702ZM27.6224 37.6702C28.3253 37.6702 29.0287 37.6654 29.7316 37.6729C29.9469 37.675 30.0334 37.6011 30.0323 37.377C30.0254 36.064 30.0339 34.7504 30.0259 33.4374C30.0227 32.8584 29.8422 32.3368 29.4731 31.8816C28.8338 31.0929 27.8019 30.7911 26.8266 31.1187C25.9229 31.4221 25.243 32.3158 25.228 33.2852C25.2077 34.6411 25.2248 35.9975 25.2109 37.3534C25.2082 37.6129 25.3087 37.6767 25.5405 37.674C26.2343 37.6649 26.9281 37.6702 27.6224 37.6702ZM14.361 37.6702C15.073 37.6702 15.7844 37.6659 16.4964 37.6729C16.6951 37.6745 16.7853 37.6182 16.7837 37.3989C16.7763 36.0779 16.7816 34.7563 16.7784 33.4348C16.7768 32.8413 16.6043 32.3132 16.2165 31.8478C15.5184 31.0104 14.3017 30.7332 13.3382 31.2345C12.3907 31.7272 11.9655 32.5389 11.965 33.5924C11.9639 34.8427 11.9693 36.0929 11.9602 37.3432C11.9586 37.5839 12.0302 37.6783 12.2791 37.674C12.9729 37.6616 13.6667 37.6697 14.361 37.6702ZM33.6365 37.6702C34.3479 37.6702 35.0599 37.6675 35.7713 37.6724C35.9396 37.6734 36.049 37.6332 36.0469 37.4386C36.0394 36.6001 36.0859 35.7568 36.0149 34.9236C35.9326 33.9607 35.3606 33.2825 34.4675 32.9656C32.8374 32.3866 31.2389 33.5624 31.2319 35.301C31.2292 35.9884 31.2437 36.6762 31.2234 37.363C31.2159 37.6118 31.3062 37.675 31.5278 37.6729C32.2312 37.6665 32.9336 37.6702 33.6365 37.6702ZM8.35284 37.6697C9.05519 37.6697 9.75808 37.6649 10.4604 37.6724C10.689 37.6745 10.774 37.5903 10.7697 37.3555C10.7574 36.6773 10.7627 35.9986 10.7659 35.3203C10.7686 34.7864 10.626 34.2915 10.3296 33.8551C9.72336 32.963 8.68238 32.6257 7.5928 32.9437C6.70938 33.201 5.97178 34.1827 5.94668 35.1654C5.92852 35.8881 5.94935 36.6114 5.93012 37.3335C5.92318 37.6016 6.02679 37.6756 6.27195 37.6724C6.96576 37.6638 7.65956 37.6697 8.35284 37.6697ZM19.1995 27.3561C19.2054 28.3431 20.029 29.1628 21.0091 29.158C22.0009 29.1532 22.8096 28.32 22.8021 27.3121C22.7946 26.316 21.9673 25.5171 20.953 25.5262C19.9953 25.5354 19.1936 26.3723 19.1995 27.3561ZM7.15643 30.3836C7.16231 31.049 7.72579 31.6028 8.39129 31.598C9.00071 31.5931 9.56954 31.0002 9.57007 30.3691C9.57061 29.7172 8.9895 29.1548 8.32506 29.1639C7.69535 29.172 7.15056 29.7408 7.15643 30.3836ZM34.8302 30.3649C34.8291 29.7022 34.2843 29.1586 33.6263 29.1634C32.9785 29.1682 32.4326 29.7306 32.4374 30.389C32.4417 31.0093 32.9998 31.5921 33.5964 31.5996C34.2822 31.6076 34.8313 31.0586 34.8302 30.3649ZM28.8172 28.5618C28.8081 27.8777 28.2633 27.3373 27.5914 27.3459C26.966 27.3539 26.3977 27.9399 26.4121 28.5624C26.4281 29.2449 26.9729 29.7676 27.6582 29.7585C28.2788 29.7494 28.8252 29.1854 28.8172 28.5618ZM14.3792 29.7617C15.0036 29.7756 15.5596 29.2379 15.5735 28.6058C15.5889 27.9158 15.0698 27.3609 14.3952 27.347C13.7575 27.3341 13.2004 27.8734 13.1833 28.52C13.1657 29.1961 13.6955 29.7462 14.3792 29.7617Z" fill="#008dd9" stroke="#008dd9" stroke-width="0.6"/>
<path d="M21.0166 4.87472C22.182 4.87472 23.3474 4.87258 24.5134 4.8758C24.9556 4.8774 25.1906 5.10741 25.1917 5.55079C25.196 7.12273 25.1965 8.69468 25.1917 10.2666C25.1906 10.6891 24.9471 10.9325 24.5241 10.9336C22.166 10.9373 19.8079 10.9373 17.4498 10.9336C17.0903 10.933 16.913 10.7486 16.882 10.4323C16.7256 8.83997 16.819 7.2439 16.7971 5.64997C16.7896 5.10741 17.0279 4.87526 17.5737 4.87472C18.7215 4.87365 19.8688 4.87472 21.0166 4.87472ZM21.0011 9.72567C21.0011 9.72406 21.0011 9.72299 21.0011 9.72138C21.8904 9.72138 22.7802 9.72191 23.6695 9.72138C24.0108 9.72084 24.0199 9.7128 24.0199 9.38308C24.0204 8.39176 24.0135 7.40045 24.0247 6.40968C24.0274 6.16466 23.9488 6.07781 23.7053 6.07835C21.9085 6.08424 20.1113 6.08424 18.3145 6.07781C18.0768 6.07674 17.9855 6.14804 17.9887 6.4011C18.0015 7.38276 17.9935 8.36496 17.9946 9.34716C17.9946 9.7262 17.9957 9.7262 18.3861 9.7262C19.2578 9.72567 20.1294 9.72567 21.0011 9.72567Z" fill="#008dd9" stroke="#008dd9" stroke-width="0.6"/>
<path d="M22.8093 15.1729C22.805 14.5982 22.805 14.5977 23.3567 14.5939C24.1547 14.5885 23.9987 14.5371 23.9993 15.241C23.9993 15.8034 23.9939 15.8088 23.4459 15.8072C22.6923 15.8056 22.8253 15.8983 22.8093 15.1729Z" fill="#008dd9" stroke="#008dd9" stroke-width="0.6"/>
<path d="M19.1822 15.187C19.1812 15.8041 19.1812 15.8164 18.5787 15.8057C17.9981 15.7955 17.9874 15.9301 17.9981 15.2159C18.0093 14.4889 17.9217 14.5999 18.6188 14.5929C19.1828 14.587 19.1828 14.5919 19.1822 15.187Z" fill="#008dd9" stroke="#008dd9" stroke-width="0.6"/>
<path d="M20.9879 15.8062C20.3859 15.8207 20.3859 15.8207 20.403 15.2197C20.4206 14.5881 20.4206 14.5881 21.0514 14.5924C21.5893 14.5962 21.5893 14.5962 21.5887 15.1307C21.5887 15.1484 21.5887 15.1661 21.5887 15.1843C21.5882 15.7918 21.5882 15.7918 20.9879 15.8062Z" fill="#008dd9" stroke="#008dd9" stroke-width="0.6"/>
<path d="M25.2317 15.1775C25.244 14.5497 25.1105 14.592 25.8091 14.5926C26.5178 14.5936 26.403 14.5486 26.4051 15.1893C26.4078 15.8385 26.5045 15.815 25.768 15.8074C25.1511 15.8016 25.2274 15.8627 25.2317 15.1775Z" fill="#008dd9" stroke="#008dd9" stroke-width="0.6"/>
<path d="M16.1747 14.5923C16.8888 14.5992 16.766 14.5344 16.7702 15.1826C16.7745 15.887 16.8423 15.7927 16.171 15.8066C15.5829 15.819 15.5829 15.8206 15.5829 15.2448C15.5829 15.2271 15.5829 15.2094 15.5829 15.1917C15.5899 14.5242 15.4969 14.5944 16.1747 14.5923Z" fill="#008dd9" stroke="#008dd9" stroke-width="0.6"/>
<path d="M15.5835 22.4533C15.5835 21.878 15.4921 21.8775 16.1624 21.8817C16.8835 21.8866 16.7681 21.8394 16.7702 22.4972C16.7724 23.1508 16.8381 23.0704 16.2094 23.0746C15.4339 23.0795 15.5979 23.1057 15.5835 22.4533Z" fill="#008dd9" stroke="#008dd9" stroke-width="0.6"/>
<path d="M21.5868 22.4886C21.5868 23.1733 21.6407 23.0623 21.0062 23.0714C20.2782 23.0821 20.4102 23.0859 20.4043 22.479C20.3984 21.886 20.4027 21.8849 21.0003 21.8844C21.6642 21.8839 21.5841 21.8018 21.5868 22.4886Z" fill="#008dd9" stroke="#008dd9" stroke-width="0.6"/>
<path d="M19.1864 22.4906C19.1848 23.0917 19.3204 23.0734 18.6015 23.074C18.0076 23.0745 18.0071 23.0761 18.0038 22.473C18.0006 21.8317 17.928 21.887 18.5882 21.8816C19.3204 21.8757 19.1773 21.8907 19.1864 22.4906Z" fill="#008dd9" stroke="#008dd9" stroke-width="0.6"/>
<path d="M26.4058 22.4842C26.4074 23.1651 26.4538 23.0643 25.8268 23.0718C25.1175 23.0799 25.235 23.1062 25.2323 22.4767C25.2296 21.8468 25.1511 21.8822 25.8097 21.8832C26.4987 21.8843 26.4015 21.842 26.4058 22.4842Z" fill="#008dd9" stroke="#008dd9" stroke-width="0.6"/>
<path d="M24.003 22.4894C24.002 23.1397 24.0719 23.0748 23.4449 23.0684C22.703 23.0609 22.8194 23.1933 22.8104 22.4433C22.8024 21.7586 22.7992 21.9066 23.3626 21.8782C23.3717 21.8776 23.3803 21.8782 23.3893 21.8782C24.002 21.8835 24.002 21.8835 24.003 22.4894Z" fill="#008dd9" stroke="#008dd9" stroke-width="0.6"/>
<path d="M22.8123 17.6037C22.8187 16.978 22.7022 17.0295 23.3998 17.0316C24.0012 17.0338 24.0012 17.0343 24.0033 17.6434C24.0049 18.2208 24.0049 18.2208 23.4393 18.2154C23.4302 18.2154 23.4217 18.2149 23.4126 18.2149C22.8144 18.2111 22.8144 18.2111 22.8123 17.6037Z" fill="#008dd9" stroke="#008dd9" stroke-width="0.6"/>
<path d="M24.0026 12.7727C24.0026 13.3571 24.0026 13.3571 23.4263 13.3571C22.8104 13.3571 22.8083 13.3571 22.8115 12.7325C22.8147 12.1186 22.7207 12.1679 23.3873 12.1679C24.0026 12.1679 24.0026 12.1679 24.0026 12.7727Z" fill="#008dd9" stroke="#008dd9" stroke-width="0.6"/>
<path d="M24.0024 20.056C23.9949 20.6516 24.1434 20.6597 23.401 20.6495C22.7376 20.6404 22.8145 20.7529 22.8118 20.0517C22.8086 19.3354 22.7413 19.4517 23.417 19.4459C24.0024 19.44 24.0024 19.4442 24.0024 20.056Z" fill="#008dd9" stroke="#008dd9" stroke-width="0.6"/>
<path d="M16.773 17.6506C16.7634 18.2613 16.8767 18.2141 16.201 18.2162C15.4581 18.2184 15.5895 18.2575 15.5863 17.5852C15.5836 17.0657 15.4495 17.0223 16.146 17.0298C16.8761 17.0373 16.765 16.9681 16.773 17.6506Z" fill="#008dd9" stroke="#008dd9" stroke-width="0.6"/>
<path d="M16.77 20.0461C16.7802 20.7666 16.7935 20.6438 16.1745 20.6476C15.5827 20.6514 15.5843 20.6476 15.5827 20.0643C15.5811 19.3678 15.5491 19.4429 16.2023 19.4467C16.8128 19.4493 16.7738 19.341 16.77 20.0461Z" fill="#008dd9" stroke="#008dd9" stroke-width="0.6"/>
<path d="M26.406 20.0429C26.4039 20.7548 26.46 20.6412 25.7907 20.6492C25.1653 20.6567 25.2251 20.6782 25.2304 20.0933C25.2374 19.3368 25.1658 19.4499 25.8879 19.4456C26.4637 19.4419 26.4028 19.3925 26.406 20.0429Z" fill="#008dd9" stroke="#008dd9" stroke-width="0.6"/>
<path d="M19.1901 20.0339C19.1848 20.6676 19.2766 20.6563 18.5711 20.6542C17.9568 20.6526 17.9985 20.7035 18.0017 20.0752C18.0054 19.3626 17.9419 19.4516 18.6266 19.4441C19.2563 19.4366 19.1922 19.4345 19.1901 20.0339Z" fill="#008dd9" stroke="#008dd9" stroke-width="0.6"/>
<path d="M21.5882 12.774C21.5759 13.4029 21.7132 13.3595 21.0108 13.3557C20.332 13.352 20.4019 13.4287 20.3998 12.7403C20.3982 12.1237 20.3512 12.1634 20.9766 12.1687C21.6566 12.1746 21.5855 12.0626 21.5882 12.774Z" fill="#008dd9" stroke="#008dd9" stroke-width="0.6"/>
<path d="M21.5872 20.0471C21.5941 20.7784 21.6075 20.6438 20.9986 20.6497C20.2968 20.6567 20.4046 20.6631 20.4041 20.045C20.4036 19.3732 20.347 19.4413 21.0023 19.4461C21.639 19.4515 21.5845 19.3212 21.5872 20.0471Z" fill="#008dd9" stroke="#008dd9" stroke-width="0.6"/>
<path d="M21.5916 17.6323C21.5868 18.3073 21.6674 18.2081 21.0142 18.2178C20.2691 18.2285 20.4091 18.2178 20.4085 17.6007C20.408 17.034 20.4091 17.034 20.979 17.0318C21.6979 17.0292 21.5846 16.9654 21.5916 17.6323Z" fill="#008dd9" stroke="#008dd9" stroke-width="0.6"/>
<path d="M19.1865 17.638C19.1902 18.2191 19.1902 18.2149 18.5947 18.2159C17.9158 18.2165 18.0034 18.2765 18.004 17.6106C18.0045 16.9876 17.9164 17.0262 18.5968 17.0316C19.1827 17.0359 19.1827 17.0348 19.1865 17.638Z" fill="#008dd9" stroke="#008dd9" stroke-width="0.6"/>
<path d="M18.5912 13.3571C18.0058 13.3581 18.0079 13.3581 18.0005 12.7604C17.9925 12.1138 17.9401 12.1722 18.5752 12.1669C19.3208 12.1604 19.1782 12.1754 19.1814 12.7856C19.1846 13.356 19.1792 13.356 18.5912 13.3571Z" fill="#008dd9" stroke="#008dd9" stroke-width="0.6"/>
<path d="M26.4043 17.6255C26.4005 18.278 26.4785 18.2105 25.8258 18.2148C25.1299 18.219 25.2335 18.2625 25.2303 17.6196C25.2271 17.0342 25.2298 17.0358 25.8029 17.0315C26.4961 17.0261 26.4005 16.9934 26.4043 17.6255Z" fill="#008dd9" stroke="#008dd9" stroke-width="0.6"/>
<path d="M31.2326 21.2787C31.2326 19.7523 31.2342 18.2254 31.2305 16.699C31.2299 16.4899 31.3223 16.409 31.5216 16.4149C31.708 16.4208 31.896 16.4267 32.0818 16.4133C32.3318 16.3956 32.4274 16.4857 32.4263 16.7489C32.4173 18.472 32.4226 20.1957 32.4226 21.9188C32.4226 23.1959 32.4221 24.4724 32.4221 25.7495C32.4221 26.0937 32.413 26.1039 32.0589 26.1055C31.8901 26.1066 31.7202 26.1001 31.552 26.1098C31.3106 26.1232 31.2326 26.0251 31.2342 25.7769C31.2449 24.2773 31.2395 22.7772 31.2395 21.2776C31.2374 21.2787 31.2347 21.2787 31.2326 21.2787Z" fill="#008dd9" stroke="#008dd9" stroke-width="0.6"/>
<path d="M34.8759 21.2505C34.8759 19.7498 34.8807 18.2492 34.8711 16.7486C34.8695 16.4912 34.9496 16.3872 35.2092 16.414C35.3764 16.4312 35.5484 16.4312 35.7155 16.414C35.9506 16.3899 36.0285 16.4816 36.0237 16.7153C36.0114 17.3228 36.0184 17.9302 36.0184 18.5376C36.0184 20.9315 36.0184 23.3259 36.0184 25.7197C36.0184 26.1073 36.0184 26.1073 35.645 26.1068C35.4939 26.1068 35.3411 26.095 35.1916 26.1095C34.9384 26.1336 34.8717 26.0167 34.8727 25.7797C34.8797 24.27 34.8765 22.7602 34.8765 21.251C34.8765 21.2505 34.8759 21.2505 34.8759 21.2505Z" fill="#008dd9" stroke="#008dd9" stroke-width="0.6"/>
<path d="M7.15689 21.2489C7.15689 22.7672 7.15208 24.285 7.1617 25.8033C7.1633 26.0505 7.08746 26.1459 6.83963 26.1234C6.64521 26.1057 6.44813 26.1111 6.25264 26.1207C6.02939 26.132 5.93592 26.051 5.93752 25.813C5.94607 24.5632 5.94179 23.3135 5.94179 22.0632C5.94233 20.2865 5.94767 18.5097 5.93805 16.7335C5.93645 16.4698 6.02778 16.3791 6.27775 16.3963C6.46362 16.4092 6.65216 16.4113 6.83803 16.3968C7.08372 16.377 7.1649 16.4767 7.16223 16.7212C7.15208 17.7211 7.15742 18.7215 7.15689 19.7214C7.15689 20.2313 7.15689 20.7401 7.15689 21.2489Z" fill="#008dd9" stroke="#008dd9" stroke-width="0.6"/>
<path d="M10.7797 21.258C10.7797 22.7581 10.7797 24.2577 10.7797 25.7578C10.7797 26.1025 10.7642 26.1181 10.4176 26.1202C10.2307 26.1213 10.0432 26.1116 9.85679 26.1229C9.64795 26.1352 9.57264 26.0489 9.57424 25.8403C9.58119 25.0989 9.57478 24.3574 9.57531 23.6159C9.57585 21.3197 9.58065 19.0239 9.57424 16.7277C9.57371 16.481 9.6565 16.384 9.89898 16.3995C10.0854 16.4113 10.2734 16.4113 10.4593 16.3995C10.7071 16.3835 10.7845 16.4961 10.7824 16.7341C10.7722 17.8139 10.7728 18.8942 10.7706 19.974C10.7696 20.4023 10.7706 20.8307 10.7706 21.2591C10.7739 21.258 10.7765 21.258 10.7797 21.258Z" fill="#008dd9" stroke="#008dd9" stroke-width="0.6"/>
</svg>
