<svg width="42" height="42" viewBox="0 0 42 42" fill="none" xmlns="http://www.w3.org/2000/svg">
<path d="M6.00926 20.8615C6.00926 14.847 6.01492 8.83293 6.00001 2.81839C5.99847 2.24007 6.1861 2.00463 6.82303 2.00411C13.3773 2.00308 19.9311 2.00103 26.4854 2C26.6309 2 26.7769 2.01285 26.9219 2.00565C27.2442 1.9892 27.494 2.10898 27.7146 2.34648C28.3798 3.06308 29.0491 3.77712 29.7343 4.47522C30.2361 4.9862 30.729 5.50643 31.2225 6.02409C31.9926 6.83271 32.7601 7.6439 33.5363 8.44687C34.0725 9.00155 34.6169 9.54902 35.1284 10.1258C35.5366 10.5859 35.9704 11.0198 36.3971 11.4608C36.522 11.5899 36.5554 11.7549 36.5554 11.9343C36.556 13.3994 36.5626 14.8639 36.5631 16.329C36.5652 22.3518 36.5652 28.3745 36.5657 34.3978C36.5657 34.4575 36.5729 34.5197 36.5601 34.5772C36.4871 34.9145 36.6156 35.1648 36.8562 35.3977C37.1918 35.7221 37.5023 36.0716 37.8226 36.4114C38.0709 36.6746 38.0565 37.0843 37.7923 37.3208C37.5311 37.5547 37.124 37.529 36.8886 37.2617C36.8238 37.1882 36.7503 37.1188 36.6485 37.1434C36.5241 37.1733 36.5467 37.2915 36.5518 37.3784C36.5878 37.9603 36.5482 38.5422 36.5457 39.1236C36.5441 39.4922 36.3359 39.7184 35.972 39.7204C34.3702 39.7292 32.7683 39.7318 31.1665 39.7318C23.4648 39.7328 15.7631 39.7323 8.06089 39.7323C7.6152 39.7323 7.17002 39.7323 6.72433 39.7297C6.146 39.7266 6.00155 39.4773 6.00361 39.0326C6.01389 36.8052 6.00926 34.5778 6.00926 32.3503C6.00978 28.5205 6.00978 24.6913 6.00926 20.8615ZM7.20446 20.8451C7.20497 20.8451 7.20549 20.8451 7.20549 20.8451C7.20549 22.9095 7.20395 24.9745 7.206 27.039C7.20857 30.6714 7.21269 34.3038 7.21783 37.9361C7.21885 38.4872 7.224 38.4857 7.79409 38.4857C16.7727 38.4857 25.7508 38.4857 34.7295 38.4867C34.8148 38.4867 34.9012 38.4903 34.9855 38.5021C35.2621 38.5407 35.3186 38.4954 35.3186 38.2096C35.3186 37.4298 35.314 36.6505 35.3171 35.8711C35.3176 35.7406 35.2734 35.6367 35.1891 35.5478C34.6313 34.9602 34.0741 34.3716 33.5117 33.7887C33.0984 33.3605 32.6727 32.9446 32.2599 32.5164C31.7633 32.0008 31.2837 31.4687 30.7799 30.9598C29.9785 30.1501 29.173 29.3446 28.4147 28.4943C28.0765 28.1144 27.95 28.0815 27.6621 28.3046C27.4066 28.5026 27.1373 28.6742 26.8535 28.8341C25.7992 29.4273 24.6677 29.7399 23.4705 29.836C22.7333 29.8951 22.0044 29.8376 21.2764 29.6998C20.8657 29.6217 20.4796 29.4371 20.0509 29.4376C16.7866 29.4412 13.5228 29.4412 10.2585 29.4423C10.113 29.4423 9.96755 29.4412 9.82567 29.4001C9.49564 29.305 9.31572 28.9503 9.43652 28.6285C9.54756 28.3329 9.74394 28.2008 10.093 28.2008C11.2584 28.1998 12.4232 28.2013 13.5886 28.2018C14.9082 28.2023 16.2273 28.2034 17.5469 28.2039C17.6394 28.2039 17.7582 28.2291 17.7967 28.1237C17.8363 28.0137 17.7217 27.9664 17.6492 27.9114C17.46 27.7674 17.2729 27.6256 17.1058 27.4503C16.6211 26.9424 16.1646 26.4185 15.851 25.7811C15.7652 25.6063 15.6413 25.4711 15.395 25.4727C13.6647 25.4835 11.9338 25.4799 10.2035 25.4778C10.0935 25.4778 9.98092 25.4634 9.87451 25.4367C9.58355 25.3632 9.38409 25.0727 9.41391 24.7812C9.44578 24.4672 9.69664 24.242 10.0226 24.2404C11.2306 24.2353 12.4381 24.2312 13.6462 24.2291C14.0137 24.2286 14.3813 24.2261 14.7483 24.244C15.0331 24.2579 15.1149 24.1782 15.0321 23.9022C14.8249 23.2118 14.7257 22.5045 14.7139 21.7858C14.7098 21.5339 14.6008 21.4671 14.3659 21.4686C13.1409 21.4774 11.9159 21.4738 10.6908 21.4748C10.4595 21.4748 10.2277 21.4892 9.99737 21.4748C9.62313 21.4511 9.40774 21.2203 9.40517 20.8651C9.4026 20.4821 9.6694 20.24 10.1233 20.2385C11.5884 20.2333 13.0535 20.2328 14.518 20.2379C14.7134 20.2385 14.8794 20.203 14.8892 19.9855C14.9005 19.7398 14.9761 19.5126 15.0532 19.2895C15.228 18.7852 15.3529 18.2578 15.6721 17.8136C15.7256 17.7396 15.7539 17.6615 15.7019 17.5766C15.6469 17.4862 15.5539 17.5057 15.4706 17.5062C14.9396 17.5083 14.4085 17.515 13.8775 17.515C12.6098 17.515 11.3416 17.515 10.074 17.5083C9.67299 17.5062 9.39951 17.2404 9.4062 16.8827C9.41339 16.5053 9.6658 16.274 10.0806 16.2694C10.312 16.2668 10.5428 16.2714 10.7741 16.2714C12.6247 16.2725 14.4754 16.2735 16.3255 16.2745C16.5455 16.2745 16.7774 16.257 16.8946 16.0509C17.0267 15.8185 17.2488 15.6849 17.4292 15.5147C18.0091 14.9688 18.6753 14.5396 19.3939 14.189C20.0591 13.8646 20.7603 13.6276 21.4805 13.5155C22.4069 13.3716 23.3435 13.3382 24.2853 13.5263C25.2558 13.7196 26.176 14.0188 27.0309 14.5144C27.6734 14.8865 28.2523 15.3471 28.7633 15.8802C28.9715 16.0977 29.1591 16.2617 29.4722 16.2576C30.3116 16.2457 31.1506 16.2432 31.99 16.2396C32.1952 16.2385 32.4023 16.2221 32.6043 16.2704C32.8213 16.3218 33.0063 16.4215 33.0891 16.6462C33.2541 17.0945 32.9544 17.5144 32.4578 17.515C31.7556 17.5165 31.0534 17.5052 30.3512 17.499C30.1163 17.497 30.0114 17.6214 30.1296 17.79C30.3281 18.0727 30.4484 18.3919 30.5609 18.7081C30.6977 19.0916 30.8817 19.4735 30.8817 19.8884C30.8817 20.166 31.0138 20.2308 31.239 20.2323C31.6328 20.2349 32.0271 20.2359 32.4208 20.2349C32.8023 20.2333 33.1061 20.5017 33.1081 20.8466C33.1102 21.2075 32.831 21.4738 32.4429 21.4743C32.0831 21.4753 31.7238 21.4743 31.3639 21.4681C31.2035 21.4655 31.0786 21.5103 31.094 21.6912C31.1177 21.9678 31.0652 22.2382 31.0431 22.5101C30.9753 23.3506 30.7511 24.1603 30.4144 24.9257C30.0829 25.6798 29.6521 26.3861 29.0861 26.9979C28.9709 27.1223 28.9843 27.2621 29.1087 27.3572C29.2336 27.4523 29.32 27.5783 29.429 27.6852C29.9091 28.154 30.3661 28.646 30.8339 29.1266C31.2616 29.5661 31.6847 30.0124 32.1078 30.4575C32.6953 31.0765 33.2891 31.6897 33.8782 32.3071C34.2776 32.7256 34.7022 33.1194 35.0713 33.5666C35.1068 33.6098 35.1556 33.6643 35.2235 33.6432C35.3006 33.619 35.3145 33.5465 35.3155 33.4766C35.3171 33.3224 35.3135 33.1682 35.3135 33.014C35.3135 26.2885 35.3124 19.5635 35.3165 12.838C35.3165 12.6134 35.2605 12.5172 35.0132 12.5177C32.3658 12.5249 29.7189 12.5219 27.0715 12.5244C26.9347 12.5244 26.8422 12.4818 26.7368 12.3846C26.5266 12.1903 26.4736 11.96 26.4741 11.6932C26.4767 9.72278 26.4762 7.75237 26.4767 5.78197C26.4767 5.01087 26.4736 4.24029 26.4793 3.46919C26.4808 3.27488 26.397 3.21422 26.2145 3.22296C25.8814 3.23838 25.5478 3.24815 25.2142 3.24866C22.3699 3.2502 19.5255 3.25483 16.6812 3.2466C13.6231 3.23787 10.5649 3.28259 7.50724 3.21987C7.31139 3.21576 7.19932 3.27077 7.20806 3.49541C7.21885 3.76889 7.20446 4.0434 7.20446 4.3174C7.20446 9.82765 7.20446 15.3364 7.20446 20.8451ZM16.0099 21.6136C16.0536 25.5503 19.1133 28.5267 22.8767 28.5483C26.6484 28.5699 30.0417 25.4557 29.7621 21.1185C29.5446 17.7489 26.7538 14.6825 22.8212 14.7215C18.9853 14.7596 16.0438 17.8553 16.0099 21.6136ZM27.7326 7.88603C27.7326 8.88742 27.7398 9.88882 27.7285 10.8897C27.7243 11.2357 27.7685 11.304 28.1032 11.2819C28.1546 11.2783 28.206 11.2788 28.2574 11.2794C30.2247 11.2835 32.1921 11.2881 34.1589 11.2922C34.2262 11.2922 34.3028 11.3061 34.3388 11.228C34.3722 11.156 34.3403 11.0912 34.29 11.0419C34.1805 10.9339 34.0602 10.8373 33.9548 10.7262C33.4284 10.1726 32.9061 9.61431 32.3812 9.05964C31.7767 8.42117 31.1716 7.78322 30.564 7.14732C30.1646 6.72887 29.758 6.31762 29.3596 5.89814C28.8974 5.41133 28.4394 4.9204 27.985 4.42638C27.9356 4.3724 27.9058 4.31586 27.823 4.34362C27.749 4.36829 27.7099 4.42587 27.7099 4.49835C27.7105 4.60887 27.7305 4.7194 27.731 4.82992C27.7326 5.84777 27.7321 6.86664 27.7326 7.88603Z" fill="#008dd9" stroke="#008dd9" stroke-width="0.6"/>
<path d="M18.2315 8.38657C18.689 8.35933 19.1727 8.5264 19.5614 8.90424C20.5797 9.89484 20.2173 11.5213 18.891 12.0046C18.6854 12.0796 18.596 12.1737 18.5996 12.3844C18.6021 12.5114 18.5898 12.6399 18.524 12.7577C18.3641 13.0419 18.0439 13.2028 17.7796 13.1268C17.5056 13.0481 17.3 12.7397 17.3185 12.4168C17.3309 12.1999 17.2615 12.0801 17.0332 12.0107C16.275 11.7794 15.7563 11.0736 15.7501 10.3071C15.7475 9.99148 15.9953 9.6923 16.2888 9.6558C16.5891 9.61878 16.9576 9.8789 17.0229 10.175C17.0394 10.2501 17.0389 10.3323 17.0707 10.3996C17.1669 10.6006 17.2712 10.779 17.5457 10.795C17.8208 10.8109 18.0912 10.8052 18.3646 10.7837C18.7281 10.7549 18.9471 10.3143 18.7702 9.99405C18.651 9.77763 18.487 9.69846 18.2567 9.69846C18.0171 9.69846 17.7765 9.70052 17.5375 9.68253C16.311 9.59051 15.5028 8.55364 15.8 7.35074C15.9526 6.73386 16.3762 6.27274 17.0116 6.07432C17.2507 5.99978 17.3612 5.87177 17.317 5.62914C17.2414 5.21223 17.6922 4.8858 18.0752 4.96137C18.3636 5.01843 18.6073 5.28831 18.597 5.62708C18.5898 5.87434 18.6777 6.01211 18.9106 6.0774C19.3922 6.2126 19.7171 6.56576 19.932 6.9729C20.0878 7.26848 20.2672 7.61753 20.0924 7.99537C19.9649 8.2704 19.7485 8.43438 19.5095 8.41485C19.1984 8.38914 18.944 8.19277 18.8658 7.91261C18.836 7.8062 18.8396 7.68385 18.7867 7.59235C18.6782 7.40368 18.5327 7.25872 18.2793 7.27877C18.0752 7.2947 17.8686 7.27825 17.6629 7.28134C17.2923 7.28699 17.0533 7.4921 17.044 7.80722C17.0353 8.12183 17.2455 8.32489 17.6054 8.37269C17.7853 8.39634 17.9642 8.38863 18.2315 8.38657Z" fill="#008dd9" stroke="#008dd9" stroke-width="0.6"/>
<path d="M11.8124 9.69855C11.2958 9.72065 10.8213 9.61732 10.3967 9.29706C9.6842 8.75987 9.42819 7.76412 9.85846 6.9956C10.1021 6.5607 10.4239 6.21062 10.92 6.06514C11.1426 5.99986 11.2248 5.87545 11.2084 5.63282C11.1853 5.28531 11.4886 4.95836 11.8006 4.94294C12.1522 4.92495 12.5187 5.21128 12.4802 5.56033C12.436 5.9613 12.6884 6.04869 12.9511 6.13506C13.5679 6.33811 14.0969 7.23258 14.0455 7.78263C14.0152 8.10598 13.8209 8.35581 13.533 8.40825C13.2559 8.45862 12.948 8.29618 12.8231 8.02218C12.7814 7.93017 12.7645 7.82684 12.7388 7.72763C12.6663 7.44643 12.4781 7.28964 12.1908 7.28245C11.9769 7.27731 11.7626 7.28707 11.5487 7.28039C11.1416 7.26754 10.9827 7.53845 10.9462 7.78006C10.9051 8.05354 11.1483 8.32548 11.4675 8.37432C11.6597 8.40362 11.8592 8.39231 12.0551 8.38665C13.387 8.34913 14.2491 9.45694 14.0023 10.6784C13.8759 11.3035 13.4795 11.8072 12.8066 11.9861C12.5609 12.0514 12.4817 12.1943 12.4853 12.4323C12.4915 12.8534 12.2324 13.1207 11.8463 13.1397C11.5415 13.1546 11.1616 12.786 11.2069 12.4472C11.2428 12.1753 11.1102 12.036 10.8388 11.9589C10.3967 11.8335 10.0836 11.5415 9.88057 11.1184C9.76028 10.8686 9.64924 10.629 9.65695 10.3427C9.66826 9.94375 9.90524 9.67696 10.2934 9.65331C10.5725 9.63634 10.8989 9.93759 10.9483 10.2578C11.0007 10.5976 11.1565 10.7611 11.4978 10.7971C11.7523 10.8243 12.0098 10.8362 12.2648 10.7904C12.5773 10.7349 12.7629 10.5108 12.7511 10.2018C12.7418 9.95146 12.4838 9.71448 12.1964 9.69957C12.0695 9.69289 11.9409 9.69855 11.8124 9.69855Z" fill="#008dd9" stroke="#008dd9" stroke-width="0.6"/>
<path d="M17.4772 33.4472C15.0971 33.4472 12.717 33.4482 10.3369 33.4461C10.0639 33.4461 9.79814 33.44 9.57658 33.2189C9.38843 33.0308 9.38175 32.8272 9.44909 32.6077C9.52003 32.3748 9.69224 32.2232 9.93488 32.2134C10.4726 32.1918 11.0108 32.1877 11.549 32.1877C15.6585 32.1867 19.7679 32.1887 23.8773 32.1887C24.1935 32.1887 24.5106 32.1713 24.8263 32.1836C25.2992 32.2021 25.5033 32.4226 25.491 32.8719C25.4838 33.1423 25.3573 33.2909 25.0494 33.3953C24.9085 33.4431 24.7636 33.4446 24.6176 33.4446C22.2375 33.4446 19.8573 33.4446 17.4772 33.4446C17.4772 33.4451 17.4772 33.4461 17.4772 33.4472Z" fill="#008dd9" stroke="#008dd9" stroke-width="0.6"/>
<path d="M23.0505 20.9689C23.3209 20.9216 23.6427 21.0265 23.9604 21.118C24.0997 21.1581 24.2189 21.2717 24.3449 21.356C24.8831 21.7164 25.2214 22.5857 25.0677 23.2128C24.8965 23.9114 24.4806 24.3885 23.7897 24.6116C23.6077 24.6702 23.5424 24.79 23.5409 24.9786C23.5378 25.3616 23.3368 25.632 23.0376 25.6875C22.5971 25.7698 22.2527 25.4845 22.2557 25.0049C22.2573 24.7478 22.1437 24.6075 21.919 24.5669C21.2754 24.4512 20.6539 23.5213 20.7058 22.908C20.7305 22.616 20.9557 22.2752 21.2065 22.2505C21.5792 22.2135 21.8419 22.3857 21.9751 22.743C22.0224 22.8694 22.0352 23.0103 22.1072 23.1285C22.1905 23.2642 22.2994 23.3758 22.4722 23.3763C22.7276 23.3768 22.9806 23.4272 23.2397 23.3881C23.582 23.3367 23.7995 23.1419 23.7948 22.8484C23.7902 22.5358 23.5599 22.3112 23.2088 22.2911C22.9019 22.2736 22.595 22.304 22.2871 22.252C21.609 22.1369 21.1402 21.7637 20.8606 21.1448C20.4832 20.3089 20.7932 19.5054 21.3746 18.9903C21.534 18.8495 21.7242 18.7168 21.9509 18.6752C22.1699 18.6351 22.2568 18.5133 22.2552 18.2809C22.2516 17.7586 22.6644 17.445 23.1194 17.6013C23.4263 17.7067 23.5265 17.9622 23.5378 18.2449C23.5481 18.4973 23.6401 18.5976 23.8874 18.6844C24.6348 18.9471 25.3088 19.8128 25.0255 20.7114C24.9325 21.007 24.3937 21.1689 24.1408 20.9777C23.9635 20.8435 23.8581 20.6903 23.8226 20.4585C23.7573 20.0354 23.5414 19.876 23.1168 19.876C22.9199 19.876 22.7225 19.8724 22.5261 19.8817C22.2208 19.8961 22.0188 20.1007 21.9987 20.4035C21.9823 20.6528 22.1735 20.8887 22.4423 20.9474C22.6202 20.9864 22.8001 20.9751 23.0505 20.9689Z" fill="#008dd9" stroke="#008dd9" stroke-width="0.6"/>
</svg>
